<?xml version="1.0" standalone="no"?>
<!DOCTYPE svg PUBLIC "-//W3C//DTD SVG 20010904//EN"
 "http://www.w3.org/TR/2001/REC-SVG-20010904/DTD/svg10.dtd">
<svg version="1.0" xmlns="http://www.w3.org/2000/svg"
 width="200.000000pt" height="200.000000pt" viewBox="0 0 200.000000 200.000000"
 preserveAspectRatio="xMidYMid meet">
<metadata>
Created by potrace 1.12, written by Peter Selinger 2001-2015
</metadata>
<g transform="translate(0.000000,200.000000) scale(0.100000,-0.100000)"
fill="#000000" stroke="none">
<path d="M890 1986 c-166 -35 -330 -112 -483 -227 -160 -120 -222 -213 -187
-279 8 -15 6 -20 -10 -25 -30 -10 -70 -63 -70 -95 0 -16 -12 -46 -26 -67 -76
-111 -114 -223 -114 -333 0 -121 35 -217 124 -338 39 -53 50 -62 62 -51 13 10
13 14 -1 29 -26 29 -40 131 -26 193 27 124 171 268 347 348 87 39 198 69 332
88 62 9 113 21 113 26 -1 16 -69 18 -216 5 -127 -11 -146 -11 -203 5 -68 19
-85 15 -58 -14 26 -29 5 -65 -35 -59 -25 4 -29 1 -29 -18 0 -40 -20 -68 -83
-114 -64 -47 -144 -138 -174 -199 -13 -26 -18 -59 -18 -117 0 -93 -4 -91 -56
20 -42 91 -55 169 -42 257 12 73 65 198 109 256 13 18 24 45 24 63 0 43 36 76
109 97 45 13 61 23 61 36 0 13 -9 17 -39 17 -56 0 -67 19 -41 71 59 114 309
285 515 352 112 37 182 47 310 47 164 0 286 -28 422 -96 50 -26 69 -31 75 -21
4 6 8 15 8 18 0 11 -174 87 -250 110 -96 27 -349 36 -450 15z"/>
<path d="M1150 1841 c0 -4 36 -15 80 -25 231 -49 485 -164 597 -269 18 -17 36
-28 39 -24 4 4 -31 44 -77 90 -90 89 -169 137 -289 176 -97 31 -350 69 -350
52z"/>
<path d="M812 1764 c-32 -16 -94 -65 -156 -124 -100 -95 -142 -127 -153 -116
-11 10 26 53 56 66 30 12 42 30 21 30 -31 0 -73 -36 -101 -84 -38 -68 -48 -77
-106 -87 -43 -8 -113 -45 -113 -60 0 -3 23 -9 51 -12 29 -4 74 -18 101 -32 40
-21 55 -24 77 -17 21 7 35 5 62 -9 18 -10 46 -18 62 -19 43 0 132 35 211 83
105 66 145 84 210 96 33 6 62 13 64 16 14 14 -13 16 -69 6 -62 -11 -111 -32
-269 -116 -85 -45 -130 -54 -175 -35 -19 7 -18 9 8 19 16 6 34 11 41 11 8 0
20 8 27 17 13 15 11 16 -10 10 -32 -8 -83 14 -103 45 -16 24 -16 26 8 36 13 7
24 16 24 22 0 5 5 10 10 10 6 0 10 -9 10 -20 0 -11 -7 -20 -15 -20 -23 0 -18
-28 6 -35 36 -12 69 4 86 39 14 30 14 37 0 64 l-15 31 47 19 c52 22 136 38
257 48 80 6 115 16 102 29 -4 4 -69 2 -145 -4 -197 -16 -206 -15 -192 7 16 25
68 60 122 80 56 22 68 32 36 32 -13 -1 -48 -12 -77 -26z"/>
<path d="M1300 1682 c0 -4 49 -29 108 -57 278 -129 489 -324 563 -519 31 -79
36 -54 9 37 -37 121 -86 204 -175 292 -87 87 -168 139 -285 184 -92 35 -220
72 -220 63z"/>
<path d="M900 1600 c-63 -11 -127 -17 -142 -14 l-27 5 6 -54 c3 -32 1 -62 -6
-75 -19 -35 4 -27 67 24 98 80 142 97 260 102 69 3 100 8 94 14 -18 18 -136
17 -252 -2z"/>
<path d="M1365 1483 c-51 -11 -129 -39 -225 -81 -58 -25 -136 -53 -175 -62
-38 -9 -70 -21 -70 -26 0 -5 21 -12 47 -15 57 -9 71 -16 64 -36 -5 -12 -1 -14
16 -9 163 46 193 50 373 50 149 -1 193 -4 255 -21 73 -20 100 -21 70 -3 -8 5
-53 22 -100 37 -78 26 -98 28 -235 28 -82 0 -181 -4 -219 -8 -62 -7 -68 -6
-56 8 15 19 134 76 209 100 30 10 79 18 108 18 52 0 68 9 37 21 -17 7 -68 6
-99 -1z"/>
<path d="M1130 1231 c-214 -46 -443 -117 -555 -173 -67 -34 -149 -88 -142 -94
2 -2 56 21 120 51 251 120 424 160 677 159 191 -1 278 -19 389 -80 213 -117
314 -274 296 -459 -5 -56 -5 -59 10 -40 25 32 45 113 45 186 0 58 -5 77 -42
150 -77 154 -205 254 -382 299 -103 26 -294 26 -416 1z"/>
<path d="M693 1175 c-189 -64 -319 -141 -430 -258 -44 -46 -63 -73 -63 -91 0
-37 13 -33 68 22 151 150 315 254 497 317 44 16 84 32 90 37 22 20 -68 5 -162
-27z"/>
<path d="M1055 1109 c-96 -10 -196 -31 -330 -69 -146 -42 -178 -54 -183 -67
-3 -10 5 -9 30 1 46 20 214 55 338 72 188 25 351 16 463 -26 70 -27 179 -112
251 -196 134 -158 165 -318 90 -468 -14 -27 -23 -51 -21 -53 10 -9 92 97 120
155 40 86 46 168 19 258 -66 214 -267 360 -542 394 -94 11 -119 11 -235 -1z"/>
<path d="M855 995 c-5 -2 -58 -7 -117 -10 -60 -4 -108 -10 -108 -14 0 -5 73
-11 163 -14 312 -11 475 -86 599 -275 126 -194 127 -443 2 -581 -20 -23 -35
-44 -32 -46 9 -9 132 71 176 115 158 157 140 458 -38 644 -96 100 -219 154
-400 176 -80 9 -223 12 -245 5z"/>
<path d="M690 922 c0 -4 14 -18 31 -31 129 -95 180 -422 95 -607 -28 -61 -63
-84 -128 -84 -40 -1 -42 -2 -24 -15 29 -22 102 -19 141 5 40 25 89 99 105 160
18 68 16 225 -4 295 -27 90 -74 171 -129 221 -54 49 -87 70 -87 56z"/>
<path d="M850 901 c0 -6 27 -32 59 -57 104 -81 163 -232 163 -419 1 -204 -62
-348 -177 -408 l-30 -16 33 -1 c94 -1 169 86 221 254 25 80 27 175 6 290 -20
115 -62 192 -144 268 -73 67 -131 106 -131 89z"/>
<path d="M1128 755 c101 -111 147 -246 140 -414 -6 -136 -30 -202 -99 -271
-28 -28 -45 -50 -39 -50 23 0 87 40 122 77 127 131 114 400 -27 594 -32 43
-121 119 -140 119 -4 0 16 -25 43 -55z"/>
</g>
</svg>
